# Blender v2.91.2 OBJ File: ''
# www.blender.org
mtllib test.mtl
o Cube
v 0.511137 0.735602 -0.638954
v 1.000000 -1.000000 -1.000000
v 0.436866 0.846589 0.264937
v 1.000000 -1.000000 1.000000
v -0.580419 0.816206 -0.364177
v -1.000000 -1.000000 -1.000000
v -0.634840 1.235974 0.449420
v -1.000000 -1.000000 1.000000
vt 0.625000 0.500000
vt 0.875000 0.500000
vt 0.875000 0.750000
vt 0.625000 0.750000
vt 0.375000 0.750000
vt 0.625000 1.000000
vt 0.375000 1.000000
vt 0.375000 0.000000
vt 0.625000 0.000000
vt 0.625000 0.250000
vt 0.375000 0.250000
vt 0.125000 0.500000
vt 0.375000 0.500000
vt 0.125000 0.750000
vn 0.1461 0.9482 -0.2821
vn 0.0954 0.3032 0.9481
vn -0.9805 0.1909 -0.0474
vn 0.0000 -1.0000 0.0000
vn 0.9590 0.2831 0.0137
vn -0.0784 0.2680 -0.9602
usemtl Material
s off
f 1/1/1 5/2/1 7/3/1 3/4/1
f 4/5/2 3/4/2 7/6/2 8/7/2
f 8/8/3 7/9/3 5/10/3 6/11/3
f 6/12/4 2/13/4 4/5/4 8/14/4
f 2/13/5 1/1/5 3/4/5 4/5/5
f 6/11/6 5/10/6 1/1/6 2/13/6
